#Comment line ignore any data following # character 
#Hierarchical Translation and Rotation (.htr) file 
[Header]	
#Header keywords are followed by a single value 
FileType HTR		#Single word string
DataType HTRS		#Translation followed by rotation and scale data
FileVersion 1		#integer
NumSegments 64		#integer
NumFrames 3		#integer
DataFrameRate 30		#integer, data frame rate in this file
EulerRotationOrder ZYX
CalibrationUnits mm
RotationUnits Degrees
GlobalAxisofGravity Y
BoneLengthAxis Y
ScaleFactor 1.00
[SegmentNames&Hierarchy]
#CHILD	PARENT
Pinger_Root GLOBAL
Pelvis Pinger_Root
L_Hip Pelvis
R_Hip Pelvis
Rear_Leg01 Pelvis
Spine1 Pelvis
L_Leg01 L_Hip
L_Leg02 L_Leg01
L_Leg03 L_Leg02
L_Foot L_Leg03
L_Toe1_01 L_Foot
L_Toe2_01 L_Foot
L_Toe3_01 L_Foot
planeAlignerLeft L_Foot
L_Toe1_02 L_Toe1_01
L_Toe1_03 L_Toe1_02
L_Toe2_02 L_Toe2_01
L_Toe2_03 L_Toe2_02
L_Toe3_02 L_Toe3_01
L_Toe3_03 L_Toe3_02
planeLockWeightLeft planeAlignerLeft
R_Leg01 R_Hip
R_Leg02 R_Leg01
R_Leg03 R_Leg02
R_Foot R_Leg03
planeAlignerRight R_Foot
R_Toe1_01 R_Foot
R_Toe2_01 R_Foot
R_Toe3_01 R_Foot
planeLockWeightRight planeAlignerRight
R_Toe1_02 R_Toe1_01
R_Toe1_03 R_Toe1_02
R_Toe2_02 R_Toe2_01
R_Toe2_03 R_Toe2_02
R_Toe3_02 R_Toe3_01
R_Toe3_03 R_Toe3_02
Rear_Leg02 Rear_Leg01
Rear_Leg03 Rear_Leg02
Rear_Leg04 Rear_Leg03
Rear_Foot Rear_Leg04
planeAlignerCenter Rear_Foot
Rear_Toe1_01 Rear_Foot
Rear_Toe2_01 Rear_Foot
Rear_Toe3_01 Rear_Foot
planeLockWeightCenter planeAlignerCenter
Rear_Toe1_02 Rear_Toe1_01
Rear_Toe1_03 Rear_Toe1_02
Rear_Toe2_02 Rear_Toe2_01
Rear_Toe2_03 Rear_Toe2_02
Rear_Toe3_02 Rear_Toe3_01
Rear_Toe3_03 Rear_Toe3_02
Back_Bone Spine1
Head Spine1
Motor_Bone Back_Bone
Ping_Mechanism Back_Bone
BN_LookIK Head
bottomMouth Head
L_Mouth01 Head
L_mouthFront Head
mouthGun Head
R_Mouth01 Head
R_mouthFront Head
TopMouth Head
weapon_bone Head
[BasePosition]
#SegmentName Tx, Ty, Tz, Rx, Ry, Rz, BoneLength
Pinger_Root 0.000000 0.000000 0.000000 -90.000000 0.000000 0.000000 10.000000 
Pelvis 0.000000 0.000000 0.000000 0.000000 0.000000 0.000000 10.000000 
L_Hip 0.000000 0.000000 0.000000 0.000000 0.000000 0.000000 10.000000 
R_Hip 0.000000 0.000000 0.000000 0.000000 0.000000 0.000000 10.000000 
Rear_Leg01 0.000000 0.000000 0.000000 0.000000 0.000000 0.000000 10.000000 
Spine1 0.000000 0.000000 0.000000 0.000000 0.000000 0.000000 10.000000 
L_Leg01 0.000000 0.000000 0.000000 0.000000 0.000000 0.000000 10.000000 
L_Leg02 0.000000 0.000000 0.000000 0.000000 0.000000 0.000000 10.000000 
L_Leg03 0.000000 0.000000 0.000000 0.000000 0.000000 0.000000 10.000000 
L_Foot 0.000000 0.000000 0.000000 0.000000 0.000000 0.000000 10.000000 
L_Toe1_01 0.000000 0.000000 0.000000 0.000000 0.000000 0.000000 10.000000 
L_Toe2_01 0.000000 0.000000 0.000000 0.000000 0.000000 0.000000 10.000000 
L_Toe3_01 0.000000 0.000000 0.000000 0.000000 0.000000 0.000000 10.000000 
planeAlignerLeft 0.000000 0.000000 0.000000 0.000000 0.000000 0.000000 10.000000 
L_Toe1_02 0.000000 0.000000 0.000000 0.000000 0.000000 0.000000 10.000000 
L_Toe1_03 0.000000 0.000000 0.000000 0.000000 0.000000 0.000000 10.000000 
L_Toe2_02 0.000000 0.000000 0.000000 0.000000 0.000000 0.000000 10.000000 
L_Toe2_03 0.000000 0.000000 0.000000 0.000000 0.000000 0.000000 10.000000 
L_Toe3_02 0.000000 0.000000 0.000000 0.000000 0.000000 0.000000 10.000000 
L_Toe3_03 0.000000 0.000000 0.000000 0.000000 0.000000 0.000000 10.000000 
planeLockWeightLeft 0.000000 0.000000 0.000000 0.000000 0.000000 0.000000 10.000000 
R_Leg01 0.000000 0.000000 0.000000 0.000000 0.000000 0.000000 10.000000 
R_Leg02 0.000000 0.000000 0.000000 0.000000 0.000000 0.000000 10.000000 
R_Leg03 0.000000 0.000000 0.000000 0.000000 0.000000 0.000000 10.000000 
R_Foot 0.000000 0.000000 0.000000 0.000000 0.000000 0.000000 10.000000 
planeAlignerRight 0.000000 0.000000 0.000000 0.000000 0.000000 0.000000 10.000000 
R_Toe1_01 0.000000 0.000000 0.000000 0.000000 0.000000 0.000000 10.000000 
R_Toe2_01 0.000000 0.000000 0.000000 0.000000 0.000000 0.000000 10.000000 
R_Toe3_01 0.000000 0.000000 0.000000 0.000000 0.000000 0.000000 10.000000 
planeLockWeightRight 0.000000 0.000000 0.000000 0.000000 0.000000 0.000000 10.000000 
R_Toe1_02 0.000000 0.000000 0.000000 0.000000 0.000000 0.000000 10.000000 
R_Toe1_03 0.000000 0.000000 0.000000 0.000000 0.000000 0.000000 10.000000 
R_Toe2_02 0.000000 0.000000 0.000000 0.000000 0.000000 0.000000 10.000000 
R_Toe2_03 0.000000 0.000000 0.000000 0.000000 0.000000 0.000000 10.000000 
R_Toe3_02 0.000000 0.000000 0.000000 0.000000 0.000000 0.000000 10.000000 
R_Toe3_03 0.000000 0.000000 0.000000 0.000000 0.000000 0.000000 10.000000 
Rear_Leg02 0.000000 0.000000 0.000000 0.000000 0.000000 0.000000 10.000000 
Rear_Leg03 0.000000 0.000000 0.000000 0.000000 0.000000 0.000000 10.000000 
Rear_Leg04 0.000000 0.000000 0.000000 0.000000 0.000000 0.000000 10.000000 
Rear_Foot 0.000000 0.000000 0.000000 0.000000 0.000000 0.000000 10.000000 
planeAlignerCenter 0.000000 0.000000 0.000000 0.000000 0.000000 0.000000 10.000000 
Rear_Toe1_01 0.000000 0.000000 0.000000 0.000000 0.000000 0.000000 10.000000 
Rear_Toe2_01 0.000000 0.000000 0.000000 0.000000 0.000000 0.000000 10.000000 
Rear_Toe3_01 0.000000 0.000000 0.000000 0.000000 0.000000 0.000000 10.000000 
planeLockWeightCenter 0.000000 0.000000 0.000000 0.000000 0.000000 0.000000 10.000000 
Rear_Toe1_02 0.000000 0.000000 0.000000 0.000000 0.000000 0.000000 10.000000 
Rear_Toe1_03 0.000000 0.000000 0.000000 0.000000 0.000000 0.000000 10.000000 
Rear_Toe2_02 0.000000 0.000000 0.000000 0.000000 0.000000 0.000000 10.000000 
Rear_Toe2_03 0.000000 0.000000 0.000000 0.000000 0.000000 0.000000 10.000000 
Rear_Toe3_02 0.000000 0.000000 0.000000 0.000000 0.000000 0.000000 10.000000 
Rear_Toe3_03 0.000000 0.000000 0.000000 0.000000 0.000000 0.000000 10.000000 
Back_Bone 0.000000 0.000000 0.000000 0.000000 0.000000 0.000000 10.000000 
Head 0.000000 0.000000 0.000000 0.000000 0.000000 0.000000 10.000000 
Motor_Bone 0.000000 0.000000 0.000000 0.000000 0.000000 0.000000 10.000000 
Ping_Mechanism 0.000000 0.000000 0.000000 0.000000 0.000000 0.000000 10.000000 
BN_LookIK 0.000000 0.000000 0.000000 0.000000 0.000000 0.000000 10.000000 
bottomMouth 0.000000 0.000000 0.000000 0.000000 0.000000 0.000000 10.000000 
L_Mouth01 0.000000 0.000000 0.000000 0.000000 0.000000 0.000000 10.000000 
L_mouthFront 0.000000 0.000000 0.000000 0.000000 0.000000 0.000000 10.000000 
mouthGun 0.000000 0.000000 0.000000 0.000000 0.000000 0.000000 10.000000 
R_Mouth01 0.000000 0.000000 0.000000 0.000000 0.000000 0.000000 10.000000 
R_mouthFront 0.000000 0.000000 0.000000 0.000000 0.000000 0.000000 10.000000 
TopMouth 0.000000 0.000000 0.000000 0.000000 0.000000 0.000000 10.000000 
weapon_bone 0.000000 0.000000 0.000000 0.000000 0.000000 0.000000 10.000000 
#Beginning of Data. Separated by tabs
#Fr	Tx	Ty	Tz	Rx	Ry	Rz	SF
[Pinger_Root]
38 0.000000 4796.294922 0.000000 -0.000075 -0.000000 -0.000020 4796.294434
39 0.000000 4925.924316 0.000000 -0.000075 -0.000000 -0.000020 4925.924316
40 0.000000 5055.554199 0.000000 -0.000075 -0.000000 -0.000020 5055.554199
[Pelvis]
38 502.698181 1036.678223 5286.961914 -6.663826 -88.919174 29.543011 5411.041992
39 508.434235 1053.762695 5273.017578 -91.461868 -86.593086 112.382210 5401.262207
40 501.288605 1073.065552 5236.272949 -100.016197 -83.014587 118.251953 5368.548340
[L_Hip]
38 5.766392 125.831482 872.656799 -178.250168 -81.786369 87.376007 881.701050
39 5.766392 125.831482 872.656799 -178.250168 -81.786369 87.376007 881.701050
40 5.766392 125.831482 872.656799 -178.250168 -81.786369 87.376007 881.701050
[R_Hip]
38 5.765438 125.836372 -872.654907 -1.748770 81.786041 87.376961 881.699829
39 5.765438 125.836372 -872.654907 -1.748770 81.786041 87.376961 881.699829
40 5.765438 125.836372 -872.654907 -1.748770 81.786041 87.376961 881.699829
[Rear_Leg01]
38 -192.298416 -925.602966 -0.001907 -166.566330 -18.960443 -158.867859 945.367432
39 -192.298416 -925.602966 -0.001907 -169.358948 -19.410160 -159.808975 945.367432
40 -192.298416 -925.602966 -0.001907 -172.621613 -19.344143 -160.552277 945.367432
[Spine1]
38 290.604584 5.007505 0.000477 -23.157331 11.321086 29.420124 290.647736
39 290.604584 5.007505 0.000477 -20.793180 11.362317 26.649736 290.647736
40 290.604584 5.007505 0.000477 -17.980789 11.091199 23.500895 290.647736
[L_Leg01]
38 761.932007 -0.002384 -0.069261 87.260796 -35.145367 -68.682480 761.932068
39 761.932007 -0.002384 -0.069261 79.780731 -38.953075 -64.541939 761.932068
40 761.932007 -0.002384 -0.069261 70.649124 -48.096405 -57.503761 761.932068
[L_Leg02]
38 1441.140503 -0.000954 -0.000715 4.701164 0.433771 -134.722702 1441.140503
39 1441.140503 -0.000954 -0.000715 5.067599 0.646426 -134.994446 1441.140503
40 1441.140503 -0.000954 -0.000715 5.143477 0.518581 -139.554260 1441.140503
[L_Leg03]
38 1686.963989 -0.000715 -0.000954 -0.063768 0.033134 128.124908 1686.963989
39 1686.963989 -0.000715 -0.000954 -0.071846 0.041103 130.091232 1686.963989
40 1686.963989 -0.000715 -0.000954 -0.070262 0.035647 128.498672 1686.963989
[L_Foot]
38 3041.570068 -30.715107 11.297464 -13.626061 9.637960 56.837109 3041.746094
39 3041.570068 -30.715107 11.297464 -8.036920 8.609809 61.693836 3041.746094
40 3041.570068 -30.715107 11.297464 -3.684623 7.412673 67.215302 3041.746094
[L_Toe1_01]
38 -188.216690 -224.732346 -21.137953 88.659416 -1.684212 -139.848053 293.899567
39 -188.216690 -224.732346 -21.137953 88.668991 -1.710853 -139.805237 293.899567
40 -188.216690 -224.732346 -21.137953 88.678543 -1.737503 -139.762405 293.899567
[L_Toe2_01]
38 200.746536 -219.926590 148.838394 -73.539177 -3.722984 -74.150429 332.896027
39 200.746536 -219.926590 148.838394 -73.664017 -3.694314 -73.300995 332.896027
40 200.746536 -219.926590 148.838394 -73.752769 -3.668532 -72.776360 332.896027
[L_Toe3_01]
38 188.832520 -219.859131 -191.078659 -110.948242 4.435067 -75.232536 347.140900
39 188.832520 -219.859131 -191.078659 -110.790268 4.402562 -74.379257 347.140900
40 188.832520 -219.859131 -191.078659 -110.676094 4.371584 -73.853394 347.140900
[planeAlignerLeft]
38 62.923260 -765.623047 -4.381414 0.000000 -90.000000 -90.001900 768.216858
39 88.353592 -762.185425 -6.925478 0.000000 -90.000000 -90.001900 767.320679
40 109.894775 -760.398315 -9.015707 0.000000 -90.000000 -90.001900 768.351379
[L_Toe1_02]
38 413.761139 0.000477 0.000000 0.001463 -16.705837 0.001463 413.761139
39 413.761139 0.000477 0.000000 0.001467 -16.247591 0.001467 413.761139
40 413.761139 0.000477 0.000000 0.001472 -15.789362 0.001472 413.761139
[L_Toe1_03]
38 464.317322 0.000358 -0.000089 -179.996140 78.261055 -179.992630 464.317322
39 464.317322 0.000358 -0.000089 -179.996689 76.993980 -179.993164 464.317322
40 464.317322 0.000358 -0.000089 -179.997131 75.726982 -179.993607 464.317322
[L_Toe2_02]
38 342.235809 -0.000477 0.000238 0.001180 -77.760719 0.001180 342.235809
39 342.235809 -0.000477 0.000238 0.001180 -77.681297 0.001180 342.235809
40 342.235809 -0.000477 0.000238 0.001181 -77.601868 0.001181 342.235809
[L_Toe2_03]
38 420.210846 -0.000715 0.000000 -179.996750 76.852631 -179.993225 420.210846
39 420.210846 -0.000715 0.000000 -179.996597 77.243050 -179.993073 420.210846
40 420.210846 -0.000715 0.000000 -179.996429 77.633400 -179.992905 420.210846
[L_Toe3_02]
38 329.270111 0.000954 0.000000 0.001177 -81.443886 0.001177 329.270111
39 329.270111 0.000954 0.000000 0.001177 -81.370255 0.001177 329.270111
40 329.270111 0.000954 0.000000 0.001177 -81.296600 0.001177 329.270111
[L_Toe3_03]
38 439.137451 -0.001907 0.000954 -179.997498 74.517731 -179.993973 439.137451
39 439.137451 -0.001907 0.000954 -179.997391 74.865524 -179.993881 439.137451
40 439.137451 -0.001907 0.000954 -179.997299 75.213287 -179.993774 439.137451
[planeLockWeightLeft]
38 -0.000206 0.097702 0.076126 -0.011826 -0.004376 0.005620 0.123858
39 -0.000229 0.097656 0.076141 -0.011826 -0.004376 0.005620 0.123832
40 103.998901 0.098877 0.076141 -0.011826 -0.004376 0.005620 103.998970
[R_Leg01]
38 761.455627 -0.001907 -0.000358 137.488297 -3.491602 74.001892 761.455688
39 761.455627 -0.001907 -0.000358 137.081009 -6.515111 75.313591 761.455688
40 761.455627 -0.001907 -0.000358 136.162369 -10.839161 75.449982 761.455688
[R_Leg02]
38 1441.140625 0.000000 -0.000238 0.206685 0.023925 -88.388741 1441.140625
39 1441.140625 0.000000 -0.000238 0.209921 0.022450 -89.518532 1441.140625
40 1441.140625 0.000000 -0.000238 0.213058 0.013451 -92.853142 1441.140625
[R_Leg03]
38 1686.963989 0.000954 0.001431 -0.028569 0.006647 102.501961 1686.963989
39 1686.963989 0.000954 0.001431 -0.025042 0.006473 103.446983 1686.963989
40 1686.963989 0.000954 0.001431 -0.021517 0.006241 104.391983 1686.963989
[R_Foot]
38 3041.560059 -30.531288 -11.204481 7.366409 -7.947515 60.522758 3041.734131
39 3041.560059 -30.531288 -11.204481 7.369814 -7.249977 61.887909 3041.734131
40 3041.560059 -30.531288 -11.204481 7.500934 -6.706012 63.561543 3041.734131
[planeAlignerRight]
38 29.088348 -670.698975 12.986242 0.000000 -89.960434 -90.005180 671.455078
39 23.771729 -698.034912 10.346919 0.000000 -89.960434 -90.005180 698.516235
40 18.455109 -725.370850 7.707597 0.000000 -89.960434 -90.005180 725.646484
[R_Toe1_01]
38 -188.383347 -224.864899 21.052242 90.751297 1.372423 -162.150818 294.101532
39 -188.383347 -224.864899 21.052242 90.797035 1.464607 -159.772568 294.101532
40 -188.383347 -224.864899 21.052242 90.846619 1.554889 -157.392090 294.101532
[R_Toe2_01]
38 200.637817 -220.002121 -148.787384 -102.600929 10.446715 -48.622139 332.857574
39 200.637817 -220.002121 -148.787384 -103.045700 10.240535 -50.606197 332.857574
40 200.637817 -220.002121 -148.787384 -103.482651 10.019345 -52.587261 332.857574
[R_Toe3_01]
38 188.606735 -220.092957 191.126343 -72.987732 -14.380919 -51.021938 347.192566
39 188.606735 -220.092957 191.126343 -72.564140 -13.786871 -52.842789 347.192566
40 188.606735 -220.092957 191.126343 -72.121498 -13.188025 -54.733620 347.192566
[planeLockWeightRight]
38 999.999573 0.000000 0.076147 -0.011823 -0.004379 -0.000027 999.999573
39 999.999512 0.000000 0.076156 -0.011823 -0.004379 -0.000027 999.999512
40 999.999512 0.000000 0.076165 -0.011823 -0.004379 -0.000027 999.999512
[R_Toe1_02]
38 413.762085 0.000477 -0.000119 0.001415 -22.028307 0.001415 413.762085
39 413.762085 0.000477 -0.000119 0.001410 -22.691141 0.001410 413.762085
40 413.762085 0.000477 -0.000119 0.001405 -23.354013 0.001405 413.762085
[R_Toe1_03]
38 464.317810 0.000000 0.001088 -0.010869 82.771919 -0.007366 464.317810
39 464.317810 0.000000 0.001088 0.002413 79.557045 0.004170 464.317810
40 464.317810 0.000000 0.001088 0.009870 76.342194 0.009870 464.317810
[R_Toe2_02]
38 342.234741 -0.000954 0.000238 -0.002344 -74.804741 -0.002344 342.234741
39 342.234741 -0.000954 0.000238 -0.001640 -74.007210 -0.001640 342.234741
40 342.234741 -0.000954 0.000238 -0.000935 -73.209526 -0.000935 342.234741
[R_Toe2_03]
38 420.210846 0.000715 -0.000268 -179.970032 87.664772 -179.973526 420.210846
39 420.210846 0.000715 -0.000268 0.000000 89.895325 -0.003497 420.210846
40 420.210846 0.000715 -0.000268 -0.029275 87.876984 -0.032773 420.210846
[R_Toe3_02]
38 329.270355 -0.000477 -0.000954 0.001180 -78.292625 0.001180 329.270355
39 329.270355 -0.000477 -0.000954 0.001180 -77.817520 0.001180 329.270355
40 329.270355 -0.000477 -0.000954 0.001181 -77.165665 0.001181 329.270355
[R_Toe3_03]
38 439.137939 0.000238 0.001431 -179.985107 86.042107 -179.981598 439.137939
39 439.137939 0.000238 0.001431 -179.970535 87.888443 -179.967026 439.137939
40 439.137939 0.000238 0.001431 0.000000 89.733124 0.003502 439.137939
[Rear_Leg02]
38 1162.777710 -0.029802 0.005960 1.190287 6.029096 -84.841614 1162.777710
39 1162.777710 -0.029802 0.005960 1.356223 4.722840 -79.556709 1162.777710
40 1162.777710 -0.029802 0.005960 1.205963 3.324057 -75.267075 1162.777710
[Rear_Leg03]
38 607.192505 -0.013351 -0.073195 0.006619 -0.001621 55.735889 607.192505
39 607.192505 -0.013351 -0.073195 0.006645 -0.001489 53.464325 607.192505
40 607.192505 -0.013351 -0.073195 0.006096 0.000258 51.840900 607.192505
[Rear_Leg04]
38 995.874512 -0.020504 -0.011921 -0.036276 -0.015938 42.561852 995.874573
39 995.874512 -0.020504 -0.011921 -0.035759 -0.017066 38.973965 995.874573
40 995.874512 -0.020504 -0.011921 -0.033795 -0.013225 36.184238 995.874573
[Rear_Foot]
38 3096.176270 -0.067472 -0.041425 152.085724 78.861748 -14.603700 3096.176270
39 3096.176270 -0.067472 -0.041425 158.370316 79.133163 -6.548649 3096.176270
40 3096.176270 -0.067472 -0.041425 164.904205 79.231079 1.755863 3096.176270
[planeAlignerCenter]
38 1.025429 91.998238 -712.869019 0.000009 0.000003 -179.999985 718.781616
39 1.024971 97.011658 -724.812927 0.000009 0.000003 -179.999985 731.276978
40 1.025710 101.303696 -742.936218 0.000009 0.000003 -179.999985 749.811768
[Rear_Toe1_01]
38 0.653352 83.966492 -371.173737 0.054205 23.043682 90.026550 380.553192
39 0.653352 83.966492 -371.173737 0.055171 24.234776 90.029198 380.553192
40 0.653352 83.966492 -371.173737 0.056205 25.425877 90.031883 380.553192
[Rear_Toe2_01]
38 178.200760 -294.826019 -362.060547 1.203981 47.324860 -69.391785 499.765686
39 178.200760 -294.826019 -362.060547 1.338174 48.368862 -69.210426 499.765686
40 178.200760 -294.826019 -362.060547 1.480276 49.412575 -69.021477 499.765686
[Rear_Toe3_01]
38 -153.359680 -308.780914 -362.060852 -1.483801 47.335541 -113.146271 499.952881
39 -153.359680 -308.780914 -362.060852 -1.637448 48.374863 -113.348732 499.952881
40 -153.359680 -308.780914 -362.060852 -1.799958 49.413799 -113.559692 499.952881
[planeLockWeightCenter]
38 1000.000366 0.000334 0.076263 -0.011814 -0.004373 -0.000015 1000.000366
39 1000.000366 0.000330 0.076266 -0.011814 -0.004373 -0.000015 1000.000366
40 1000.000366 0.000326 0.076269 -0.011814 -0.004373 -0.000015 1000.000366
[Rear_Toe1_02]
38 379.707825 0.194073 0.000477 -0.000767 -33.624729 0.000838 379.707855
39 379.707825 0.194073 0.000477 -0.000767 -33.624729 0.000838 379.707855
40 379.707825 0.194073 0.000477 -0.000767 -33.624729 0.000838 379.707855
[Rear_Toe1_03]
38 500.129700 0.165701 0.000119 -0.004895 68.746353 -0.001338 500.129761
39 500.129700 0.165701 0.000119 -0.004630 66.685692 -0.001059 500.129761
40 500.129700 0.165701 0.000119 -0.004343 63.919453 -0.000753 500.129761
[Rear_Toe2_02]
38 340.494507 0.000238 -0.000954 0.001174 -85.896782 0.001174 340.494507
39 340.494507 0.000238 -0.000954 0.001174 -85.620911 0.001174 340.494507
40 340.494507 0.000238 -0.000954 0.001175 -85.344696 0.001175 340.494507
[Rear_Toe2_03]
38 433.103577 0.000000 0.000238 179.987885 78.874397 179.987885 433.103546
39 433.103577 0.000000 0.000238 179.987579 79.162865 179.987579 433.103546
40 433.103577 0.000000 0.000238 179.986435 80.076965 179.986435 433.103546
[Rear_Toe3_02]
38 340.494141 -0.000358 -0.000477 0.001174 -85.795509 0.001174 340.494171
39 340.494141 -0.000358 -0.000477 0.001175 -85.510925 0.001175 340.494171
40 340.494141 -0.000358 -0.000477 0.001175 -85.226067 0.001175 340.494171
[Rear_Toe3_03]
38 433.103577 0.001431 -0.000238 -179.995682 79.156448 -179.992172 433.103546
39 433.103577 0.001431 -0.000238 -179.995499 79.458366 -179.991989 433.103546
40 433.103577 0.001431 -0.000238 -179.994904 80.381004 -179.991394 433.103546
[Back_Bone]
38 1312.175781 -701.934692 0.000954 2.119731 3.088091 -82.075951 1488.125488
39 1312.175781 -701.934692 0.000954 1.861840 3.118276 -81.621895 1488.125488
40 1312.175781 -701.934692 0.000954 1.604195 3.150501 -81.167984 1488.125488
[Head]
38 1406.159424 809.709290 0.001431 3.837339 -0.558705 -0.407986 1622.625488
39 1406.159424 809.709290 0.001431 3.657203 -0.230093 -0.025480 1622.625488
40 1406.159424 809.709290 0.001431 3.381507 0.076083 1.222896 1622.625488
[Motor_Bone]
38 1158.364380 -417.834747 0.000477 -5.513593 1.191234 -104.796593 1231.419434
39 1158.364380 -417.834747 0.000477 -3.495568 0.584013 -105.401451 1231.419434
40 1158.364380 -417.834747 0.000477 0.251812 -0.541796 -106.527893 1231.419434
[Ping_Mechanism]
38 1218.295776 -435.165619 2.729272 0.000103 -0.000053 82.120995 1293.685059
39 1227.736328 -442.963165 -8.061707 0.000103 -0.000053 82.120995 1305.227051
40 1241.187622 -451.094879 -17.366550 0.000103 -0.000053 82.120995 1320.732666
[BN_LookIK]
38 193.241119 1380.371704 -0.002861 0.000000 89.965736 -31.038179 1393.832153
39 193.241119 1380.371704 -0.002861 0.000000 89.965736 -31.038179 1393.832153
40 193.241119 1380.371704 -0.002861 0.000000 89.965736 -31.038179 1393.832153
[bottomMouth]
38 -435.092926 615.759399 -0.000954 -0.000022 0.000016 73.527184 753.966492
39 -435.092926 615.759399 -0.000954 -0.000022 0.000016 73.527184 753.966492
40 -435.092926 615.759399 -0.000954 -0.000022 0.000016 73.527184 753.966492
[L_Mouth01]
38 554.440979 7.658243 838.222046 150.204178 23.759130 109.605339 1005.027161
39 554.440979 7.658243 838.222046 150.204178 23.759130 109.605339 1005.027161
40 554.440979 7.658243 838.222046 150.204178 23.759130 109.605339 1005.027161
[L_mouthFront]
38 551.629089 934.514771 339.150421 0.000081 2.804060 79.119301 1136.941284
39 551.629089 934.514771 339.150421 0.000081 2.804060 79.119301 1136.941284
40 551.629089 934.514771 339.150421 0.000081 2.804060 79.119301 1136.941284
[mouthGun]
38 55.332661 1627.420898 0.000000 0.000023 0.000009 -11.038128 1628.361328
39 55.332661 1627.420898 0.000000 0.000023 0.000009 -11.038128 1628.361328
40 55.332661 1627.420898 0.000000 0.000023 0.000009 -11.038128 1628.361328
[R_Mouth01]
38 554.442383 7.659197 -838.223938 29.795891 -23.759109 109.605331 1005.029541
39 554.442383 7.659197 -838.223938 29.795891 -23.759109 109.605331 1005.029541
40 554.442383 7.659197 -838.223938 29.795891 -23.759109 109.605331 1005.029541
[R_mouthFront]
38 551.629089 934.514282 -339.151367 0.000029 -2.803930 79.119133 1136.941162
39 551.629089 934.514282 -339.151367 0.000029 -2.803930 79.119133 1136.941162
40 551.629089 934.514282 -339.151367 0.000029 -2.803930 79.119133 1136.941162
[TopMouth]
38 461.269867 -56.106091 -0.008583 -0.000059 -0.000268 92.025169 464.669525
39 461.269867 -56.106091 -0.008583 -0.000059 -0.000268 92.025169 464.669525
40 461.269867 -56.106091 -0.008583 -0.000059 -0.000268 92.025169 464.669525
[weapon_bone]
38 -987.239868 1448.372803 0.001431 0.000000 89.965736 -31.038221 1752.833740
39 -987.239868 1448.372803 0.001431 0.000000 89.965736 -31.038221 1752.833740
40 -987.239868 1448.372803 0.001431 0.000000 89.965736 -31.038221 1752.833740
